<?xml version="1.0" encoding="UTF-8"?>
<svg width="18px" height="16px" viewBox="0 0 18 16" version="1.1" xmlns="http://www.w3.org/2000/svg" xmlns:xlink="http://www.w3.org/1999/xlink">
    <!-- Generator: Sketch 50.2 (55047) - http://www.bohemiancoding.com/sketch -->
    <title>Shape</title>
    <desc>Created with Sketch.</desc>
    <defs></defs>
    <g id="Symbols" stroke="none" stroke-width="1" fill="none" fill-rule="evenodd">
        <g id="carrossel3" transform="translate(-292.000000, -14.000000)" fill-rule="nonzero" stroke="#000000">
            <g id="Group-6" transform="translate(23.000000, 0.000000)">
                <g id="icone_lista" transform="translate(262.000000, 6.000000)">
                    <path d="M16.1490861,23.5409835 C16.1589975,23.5474091 16.1689136,23.5538303 16.1788345,23.560247 C16.1696009,23.5523074 16.1599364,23.5451525 16.1499768,23.5387444 Z M16.0121469,23.4517239 C17.746926,22.3078785 19.3692891,21.0042192 20.8569364,19.5587318 C22.1490602,18.2976932 23.0832498,17.138338 23.7618491,15.8768663 C24.43099,14.619681 24.6508508,13.3902777 24.3984922,12.1124869 C23.8609251,9.38750986 21.1765047,7.84817236 18.5603839,8.76533423 C17.7142784,9.07018586 16.967547,9.59717131 16.3997699,10.2899723 L16.0409461,10.7278088 L15.6507791,10.3176562 L15.550775,10.2123187 C14.4269239,8.97236953 13.1221133,8.40638683 11.5674188,8.52704705 C10.3252968,8.6269018 9.33166645,9.12454419 8.61423445,10.0299616 C7.42551805,11.5288111 7.19421588,13.2144804 7.88957611,15.0621839 C8.31157666,16.1864742 9.00166726,17.2129946 10.0688144,18.4152038 C11.81498,20.3192469 13.7944718,21.9983747 16.0121469,23.4517239 Z" id="Shape"></path>
                </g>
            </g>
        </g>
    </g>
</svg>