<?xml version="1.0" encoding="UTF-8"?>
<svg width="30px" height="30px" viewBox="0 0 30 30" version="1.1" xmlns="http://www.w3.org/2000/svg" xmlns:xlink="http://www.w3.org/1999/xlink">
    <!-- Generator: Sketch 50.2 (55047) - http://www.bohemiancoding.com/sketch -->
    <title>icone_busca</title>
    <desc>Created with Sketch.</desc>
    <defs></defs>
    <g id="Symbols" stroke="none" stroke-width="1" fill="none" fill-rule="evenodd">
        <g id="header-new" transform="translate(-830.000000, -34.000000)" fill="#D7282F" fill-rule="nonzero">
            <g id="Group-6">
                <g id="icone_busca" transform="translate(830.000000, 34.000000)">
                    <path d="M29.6785714,28.2142857 L23.5714286,22.1071429 C25.5714286,19.75 26.7857143,16.7142857 26.7857143,13.3928571 C26.7857143,6 20.7857143,0 13.3928571,0 C6,0 0,6 0,13.3928571 C0,20.7857143 6,26.8214286 13.3928571,26.8214286 C16.7142857,26.8214286 19.75,25.6071429 22.0714286,23.6071429 L28.1785714,29.6785714 C28.3928571,29.8928571 28.6428571,30 28.9285714,30 C29.2142857,30 29.4642857,29.8928571 29.6785714,29.7142857 C30.1071429,29.3214286 30.1071429,28.6428571 29.6785714,28.2142857 Z M13.3928571,24.6428571 C7.17857143,24.6428571 2.14285714,19.6071429 2.14285714,13.3928571 C2.14285714,7.17857143 7.17857143,2.14285714 13.3928571,2.14285714 C19.6071429,2.14285714 24.6428571,7.17857143 24.6428571,13.3928571 C24.6428571,19.6071429 19.6071429,24.6428571 13.3928571,24.6428571 Z" id="Shape"></path>
                </g>
            </g>
        </g>
    </g>
</svg>