<?xml version="1.0" encoding="iso-8859-1"?>
<!-- Generator: Adobe Illustrator 21.0.0, SVG Export Plug-In . SVG Version: 6.00 Build 0)  -->
<svg xmlns="http://www.w3.org/2000/svg" xmlns:xlink="http://www.w3.org/1999/xlink" version="1.1" id="Capa_1" x="0px" y="0px" viewBox="0 0 512 512" style="enable-background:new 0 0 512 512;" xml:space="preserve" width="512" height="512">
<g>
	<g>
		<path d="M256,0C115.05,0,0,115.04,0,256c0,140.95,115.04,256,256,256c140.95,0,256-115.04,256-256C512,115.05,396.96,0,256,0z     M256,482C131.38,482,30,380.62,30,256S131.38,30,256,30s226,101.38,226,226S380.62,482,256,482z"/>
	</g>
	<g>
		<path d="M427.449,234.326c-103.108-47.405-220.979-61.332-331.905-39.216c-8.125,1.621-16.023-3.654-17.644-11.777    c-1.619-8.125,3.653-16.024,11.778-17.644c117.08-23.344,241.487-8.649,350.302,41.38c7.527,3.46,10.823,12.368,7.363,19.895    C443.873,234.512,434.953,237.777,427.449,234.326z"/>
	</g>
	<g>
		<path d="M364.781,370.615c-74.636-34.325-160.009-44.377-240.386-28.304c-8.128,1.624-16.026-3.645-17.65-11.768    c-1.624-8.124,3.645-16.026,11.768-17.65c86.544-17.305,178.455-6.486,258.804,30.466c7.526,3.461,10.821,12.369,7.36,19.896    C381.205,370.804,372.285,374.065,364.781,370.615z"/>
	</g>
	<g>
		<path d="M396.108,302.475c-88.844-40.871-190.556-52.845-286.396-33.713c-8.134,1.621-16.025-3.65-17.646-11.774    c-1.621-8.124,3.649-16.024,11.773-17.646c102.006-20.36,210.254-7.619,304.806,35.879c7.526,3.462,10.821,12.37,7.358,19.896    C412.533,302.664,403.611,305.929,396.108,302.475z"/>
	</g>
</g>















</svg>
