<svg id="Ebene_1" data-name="Ebene 1" xmlns="http://www.w3.org/2000/svg" viewBox="0 0 525.43 172.34"><defs><style>.cls-1{fill:#9c9d9d;}.cls-2{fill:#6f6f6e;}.cls-3{fill:#800b00;}.cls-4{fill:#fff;}</style></defs><title>Logo-FH-itelligence_USO-RESTRITO</title><path class="cls-1" d="M357.41,287.11h2.17v3h.08a5.68,5.68,0,0,1,5.43-3.46,4.22,4.22,0,0,1,4.47,3.74h.08a5.44,5.44,0,0,1,5.42-3.74c3,0,4.95,1.69,4.95,5.51v16.33H377.6v-16c0-2.53-1.17-3.86-3.34-3.86-2.41,0-4.34,2.17-4.34,5.47v14.36H367.5v-16c0-2.53-1.16-3.86-3.33-3.86-2.41,0-4.34,2.17-4.34,5.47v14.36h-2.42Z" transform="translate(-158.23 -211.47)"/><path class="cls-1" d="M398,301.38c-.36,4.54-2.86,7.56-6.88,7.56-4.5,0-7.16-3.14-7.16-11.18,0-7.4,2.66-11.14,7.36-11.14s6.88,3.26,6.88,10.38v.88H386.53v1c0,6.15,2.17,8,4.54,8,2.53,0,4.1-1.81,4.5-5.55Zm-2.38-5.51c-.08-5.31-1.56-7.24-4.54-7.24s-4.46,1.93-4.54,7.24Z" transform="translate(-158.23 -211.47)"/><path class="cls-1" d="M402.13,287.11h2.17v3h.08a5.68,5.68,0,0,1,5.43-3.46,4.21,4.21,0,0,1,4.46,3.74h.08a5.46,5.46,0,0,1,5.43-3.74c3,0,5,1.69,5,5.51v16.33h-2.42v-16c0-2.53-1.16-3.86-3.33-3.86-2.41,0-4.34,2.17-4.34,5.47v14.36h-2.42v-16c0-2.53-1.16-3.86-3.33-3.86-2.42,0-4.35,2.17-4.35,5.47v14.36h-2.41Z" transform="translate(-158.23 -211.47)"/><path class="cls-1" d="M429.31,279.75h2.42v10.57h.08a4.74,4.74,0,0,1,5-3.7c4.71,0,6.84,3.78,6.84,11.14s-2.13,11.18-6.84,11.18a5.26,5.26,0,0,1-5.22-4h-.09v3.54h-2.17Zm7.08,27.18c2.41,0,4.66-1.25,4.66-9.17s-2.25-9.13-4.66-9.13-4.66,1.25-4.66,9.13S433.94,306.93,436.39,306.93Z" transform="translate(-158.23 -211.47)"/><path class="cls-1" d="M460.56,301.38c-.36,4.54-2.86,7.56-6.88,7.56-4.5,0-7.16-3.14-7.16-11.18,0-7.4,2.66-11.14,7.36-11.14s6.88,3.26,6.88,10.38v.88H449.1v1c0,6.15,2.17,8,4.54,8,2.53,0,4.1-1.81,4.5-5.55Zm-2.37-5.51c-.08-5.31-1.57-7.24-4.55-7.24s-4.46,1.93-4.54,7.24Z" transform="translate(-158.23 -211.47)"/><path class="cls-1" d="M464.54,287.11H467v3.33H467a5.66,5.66,0,0,1,5.39-3.82,3.17,3.17,0,0,1,.85.12v2.42a6.2,6.2,0,0,0-1.17-.12c-2.65,0-5.15,1.93-5.15,6.07v13.35h-2.41Z" transform="translate(-158.23 -211.47)"/><path class="cls-1" d="M491.6,286.62c4.71,0,7.36,3.74,7.36,11.14s-2.65,11.18-7.36,11.18-7.36-3.74-7.36-11.18S486.9,286.62,491.6,286.62Zm0,20.31c2.7,0,4.79-2.33,4.79-9.17s-2.09-9.13-4.79-9.13-4.78,2.34-4.78,9.13S488.91,306.93,491.6,306.93Z" transform="translate(-158.23 -211.47)"/><path class="cls-1" d="M503.39,289.12h-2.94v-2h2.94v-2.54c0-2.93.6-5.14,4.66-5.14a7.54,7.54,0,0,1,1.53.12v2a5.2,5.2,0,0,0-1.17-.12c-1.77,0-2.61.68-2.61,3.13v2.54h3.78v2H505.8v19.34h-2.41Z" transform="translate(-158.23 -211.47)"/><path class="cls-2" d="M521.56,279.43h5.55v4.74h-5.55Zm0,7.39h5.55v21.64h-5.55Z" transform="translate(-158.23 -211.47)"/><path class="cls-2" d="M532.22,280.63h5.55v6.19H541v3.78h-3.22v11.7c0,1.69.36,2.38,2,2.38a11.77,11.77,0,0,0,1.25-.08v3.86a35.29,35.29,0,0,1-3.62.24c-4.35,0-5.15-1.33-5.15-5.71V290.6H529.4v-3.78h2.82Z" transform="translate(-158.23 -211.47)"/><path class="cls-2" d="M547.66,298.48v1.73c0,2.54.68,5,2.73,5,1.85,0,2.62-1.41,2.94-4.06h5c-.2,5-2.61,7.84-7.84,7.84-8,0-8.36-6.19-8.36-11.58,0-5.79,1.13-11.18,8.61-11.18,6.47,0,7.92,4.34,7.92,11v1.24Zm5.67-3.29c-.12-3.3-.52-5.15-2.82-5.15s-2.85,2.29-2.85,4.3v.85Z" transform="translate(-158.23 -211.47)"/><path class="cls-2" d="M561.74,279.75h5.54v28.71h-5.54Z" transform="translate(-158.23 -211.47)"/><path class="cls-2" d="M571.39,279.75h5.55v28.71h-5.55Z" transform="translate(-158.23 -211.47)"/><path class="cls-2" d="M581,279.43h5.55v4.74H581Zm0,7.39h5.55v21.64H581Z" transform="translate(-158.23 -211.47)"/><path class="cls-2" d="M606.69,286.82v20.55c0,5.71-2.53,8.48-9,8.48-4.7,0-7.35-2.09-7.35-5.79h5.3a1.93,1.93,0,0,0,.85,1.65,3.3,3.3,0,0,0,1.85.61c2.25,0,3-1.69,3-3.9v-2.86h-.08a5.81,5.81,0,0,1-4.62,2.65c-4.42,0-6.63-3-6.63-10.93,0-5.07.76-11,6.79-11a4.81,4.81,0,0,1,4.46,3h.08v-2.42ZM598.37,304c2.33,0,3-2.53,3-6.19,0-5.27-.68-7.24-2.89-7.24-2.45,0-2.9,2-2.9,7.8C595.59,301.3,596,304,598.37,304Z" transform="translate(-158.23 -211.47)"/><path class="cls-2" d="M615.34,298.48v1.73c0,2.54.68,5,2.73,5,1.85,0,2.62-1.41,2.94-4.06h5c-.2,5-2.61,7.84-7.84,7.84-8,0-8.36-6.19-8.36-11.58,0-5.79,1.13-11.18,8.6-11.18,6.48,0,7.93,4.34,7.93,11v1.24Zm5.67-3.29c-.12-3.3-.52-5.15-2.82-5.15s-2.85,2.29-2.85,4.3v.85Z" transform="translate(-158.23 -211.47)"/><path class="cls-2" d="M629.21,286.82h5.31v2.54h.08a6,6,0,0,1,5.51-3.1c3.46,0,5.51,1.89,5.51,6.15v16h-5.55V293.54c0-2.17-.72-3-2.37-3-1.89,0-2.94,1.17-2.94,3.58v14.36h-5.55Z" transform="translate(-158.23 -211.47)"/><path class="cls-2" d="M659.73,294.62c0-2.09-.4-4.34-2.49-4.34-2.73,0-3.18,2.41-3.18,7.4,0,5.35.49,7.56,3,7.56,1.85,0,2.69-1.57,2.69-5.07H665c0,5.67-2.37,8.85-8.24,8.85-5.55,0-8.28-2.69-8.28-11.38,0-8.89,3.66-11.38,8.76-11.38s7.76,3.26,7.76,8.36Z" transform="translate(-158.23 -211.47)"/><path class="cls-2" d="M672.68,298.48v1.73c0,2.54.69,5,2.74,5,1.85,0,2.61-1.41,2.93-4.06h5c-.2,5-2.61,7.84-7.84,7.84-8,0-8.37-6.19-8.37-11.58,0-5.79,1.13-11.18,8.61-11.18,6.47,0,7.92,4.34,7.92,11v1.24Zm5.67-3.29c-.12-3.3-.52-5.15-2.81-5.15s-2.86,2.29-2.86,4.3v.85Z" transform="translate(-158.23 -211.47)"/><path class="cls-3" d="M330.57,297.64a86.17,86.17,0,1,1-86.17-86.17,86.17,86.17,0,0,1,86.17,86.17" transform="translate(-158.23 -211.47)"/><rect class="cls-4" x="28.67" y="105.28" width="19.16" height="4.7"/><rect class="cls-4" x="28.67" y="112.47" width="19.16" height="4.7"/><rect class="cls-4" x="28.67" y="119.65" width="19.16" height="4.7"/><rect class="cls-4" x="28.67" y="126.91" width="19.16" height="4.7"/><rect class="cls-4" x="28.67" y="98.12" width="19.16" height="4.7"/><rect class="cls-4" x="28.68" y="76.73" width="47.68" height="4.31"/><rect class="cls-4" x="28.68" y="83.94" width="47.68" height="4.31"/><rect class="cls-4" x="28.68" y="91.14" width="47.68" height="4.31"/><rect class="cls-4" x="28.74" y="69.34" width="19.16" height="4.7"/><rect class="cls-4" x="28.74" y="62.18" width="19.16" height="4.7"/><rect class="cls-4" x="28.67" y="47.97" width="57.51" height="4.31"/><rect class="cls-4" x="28.67" y="55.16" width="57.51" height="4.31"/><rect class="cls-4" x="28.67" y="40.67" width="57.51" height="4.31"/><rect class="cls-4" x="76.76" y="41.78" width="19.13" height="2.39"/><rect class="cls-4" x="76.76" y="48.98" width="19.13" height="2.39"/><rect class="cls-4" x="76.76" y="56.18" width="19.13" height="2.39"/><rect class="cls-4" x="76.76" y="63.33" width="19.13" height="2.39"/><rect class="cls-4" x="76.76" y="70.6" width="19.13" height="2.39"/><rect class="cls-4" x="76.2" y="77.75" width="67.46" height="2.39"/><rect class="cls-4" x="76.2" y="84.9" width="67.46" height="2.39"/><rect class="cls-4" x="76.2" y="92.05" width="67.46" height="2.39"/><rect class="cls-4" x="76.76" y="99.2" width="19.13" height="2.39"/><rect class="cls-4" x="76.76" y="106.35" width="19.13" height="2.39"/><rect class="cls-4" x="76.76" y="113.5" width="19.13" height="2.39"/><rect class="cls-4" x="76.76" y="120.65" width="19.13" height="2.39"/><rect class="cls-4" x="124.52" y="41.78" width="19.12" height="2.39"/><rect class="cls-4" x="124.52" y="48.98" width="19.12" height="2.39"/><rect class="cls-4" x="124.52" y="56.18" width="19.12" height="2.39"/><rect class="cls-4" x="124.52" y="63.33" width="19.12" height="2.39"/><rect class="cls-4" x="124.52" y="70.6" width="19.12" height="2.39"/><rect class="cls-4" x="124.52" y="99.2" width="19.12" height="2.39"/><rect class="cls-4" x="124.52" y="106.35" width="19.12" height="2.39"/><rect class="cls-4" x="124.52" y="113.5" width="19.12" height="2.39"/><rect class="cls-4" x="124.52" y="120.65" width="19.12" height="2.39"/><rect class="cls-4" x="76.76" y="128.16" width="19.13" height="2.39"/><rect class="cls-4" x="124.52" y="128.16" width="19.12" height="2.39"/></svg>